<svg xmlns="http://www.w3.org/2000/svg" width="59" height="60" viewBox="0 0 59 60"><g><g><g><path fill="#fefefe" d="M58.883 29.876c0 16.163-13.14 29.266-29.351 29.266C13.32 59.142.179 46.039.179 29.876.18 13.712 13.32.61 29.532.61c16.21 0 29.35 13.102 29.35 29.266"/></g><g><path fill="#6dcef5" d="M2.696 32.845c2.59-.691 5.139-.396 8.333.034 3.443.467 7.004.948 10.013.117 4.145-1.14 6.455-3.82 8.899-6.66 2.83-3.28 6.039-7.002 12.61-8.815 4.008-1.108 8.506-.311 11.803 1.189.012 0 .854.435.85.444.64.376 1.375.874 2.041 1.347C53.315 8.978 42.376.686 29.49.686 13.304.686.18 13.773.18 29.912c0 1.335.09 2.647.265 3.935.277-.167 1.168-.71 2.251-1.002"/></g><g><path fill="#fefefe" d="M35.394 26.748c1.27 4.245 5.595 6.707 9.66 5.497 4.062-1.208 6.329-5.632 5.056-9.878-1.27-4.247-5.595-6.708-9.66-5.499-4.062 1.21-6.327 5.633-5.056 9.88"/></g><g><path fill="#fefefe" d="M30.756 17.074c-4.302 1.484-6.667 5.936-5.272 9.94 1.39 4.006 6.007 6.048 10.306 4.562 4.306-1.486 6.669-5.94 5.278-9.941-1.392-4.007-6.008-6.048-10.312-4.56"/></g><g><path fill="#fefefe" d="M19.983 33.565c.879 3.442 3.89 5.65 6.73 4.928 2.84-.718 4.43-4.093 3.553-7.533-.88-3.443-3.892-5.649-6.73-4.93-2.84.721-4.431 4.092-3.553 7.535"/></g><g><path fill="#fefefe" d="M13.644 36.127c.101 2.132 2.181 3.766 4.641 3.65 2.46-.115 4.375-1.936 4.276-4.066-.1-2.133-2.178-3.766-4.64-3.651-2.463.117-4.377 1.937-4.277 4.067"/></g><g><path fill="#fefefe" d="M6.911 42.935c5.428-.253 9.676-3.6 9.495-7.473a5.18 5.18 0 0 0-.48-1.924c-1.317-2.876-5.19-4.846-9.674-4.635-2.33.109-4.435.788-6.073 1.83a29.907 29.907 0 0 0 2.738 11.79c1.231.326 2.582.479 3.994.412"/></g><g><path fill="#99c93c" d="M57.236 21.498c-2.414-2.323-8.977-4.6-14.695-2.747-6.217 2.013-9.034 5.589-11.76 9.045-2.39 3.036-4.656 5.907-8.976 7.307-3.134 1.012-6.796.682-10.334.357-4.94-.447-8.518.127-10.38 1.64 3.062 13.026 15.74 22.46 29.947 21.837 16.002-.703 27.729-15.983 27.729-29.497 0-2.778-.655-5.442-1.531-7.942"/></g><g><path fill="#006944" d="M40.907 38.034c-.073.245-.197.564-.416.712-.269 0-.546-.1-.642-.368.122-1.104.294-2.381 1.525-2.822.466-.27 1.327-.44 1.722.125 0 .146.223.195.223.344-.542.903-1.995.783-2.412 2.009zm-6.616 1.594c-1.305-.318-2.14.639-2.953 1.4-.198.098-.272-.149-.418-.222-.028-.81.197-1.768 1.005-2.184.864-.316 2.145-.76 2.783.172.123.37-.173.713-.417.834zm14.045-17.781c-.147.882-1.475 1.397-1.181 2.526-.294.122-.664-.147-.76-.465-.276-1.007.49-1.768 1.251-2.356zm-1.478 6.4c-.146.419-.146.884-.221 1.3-.344.146-.735-.121-.836-.465-.219-.71.101-1.325.42-1.886.585-.861 1.792-1.278 2.6-.592-.272.984-1.521.712-1.963 1.643zm-2.872 6.424c-.494-.388-.519-.977-.667-1.517.023-1.055.836-2.037 1.722-2.477.59-.223 1.102.097 1.524.465-.17.736-1.11 1.004-1.524 1.642-.788.442.17 2.113-1.055 1.887zm.868-7.162c-.178 1.12-2.661 1.047-1.715 2.793-.24.283-.33.78-.793.53-.39-.39-.476-1.126-.445-1.661.147-.911.951-1.594 1.768-1.9.433-.098.82.067 1.185.238zm-6.851 14.055c-.666.394-1.13 1.623-2.065 1.057-.467-1.003.297-1.959.838-2.774.761-.585 2.137-.783 2.9-.047.221.272.372.688.221 1.058-.49.414-1.278.39-1.894.706zm14.471-15.252c.294 1.276-1.427.857-1.478 1.935 0 .343.075.86-.294.884-.792-.196-.694-1.054-.768-1.692.124-.713.398-1.473 1.137-1.84.568-.367 1.305.122 1.403.713zm-13.886 8.607c-.419 1.053-2.824.442-2.284 2.355-.294.224-.488.687-.881.342-.298-.464-.222-1.2-.077-1.715.343-.858 1.28-1.347 2.136-1.472.443 0 .79.242 1.105.49zm12.6-13.661c.446-.319 1.259-.22 1.405.415-.051.933-1.38 1.424-.889 2.528-.024.172-.17.27-.295.418-.539.046-.736-.517-.883-.883-.344-.933.073-1.816.663-2.478zM25.387 43.8c-.272.316-.369.808-.886.758-.417.05-.417-.51-.468-.805-.15-.64.17-1.106.64-1.476.565-.49 1.425-.59 2.115-.364.564.242 1.179.659 1.428 1.248v.224c-.935.143-2.118-.618-2.829.415zM8.481 42.083c.497-.026.866.194 1.26.368.365.514.738 1.175.589 1.765-.983.321-1.058-1.497-2.018-.54-.248.124-.444-.173-.468-.343.024-.492.1-1.08.637-1.25zm-3.587-2.405c.392-.39.936-.05 1.304.169.538.543.64 1.279.813 1.94-.102.27-.446.244-.593.073-.42-.49-.665-1.398-1.477-1.347-.196-.222-.123-.59-.047-.835zm5.77.342c-.34.196-.686-.05-.927-.295-.246-.292-.322-.687-.715-.882-.22-.023-.464.297-.637 0-.073-.293.173-.443.347-.636 1.05-.199 1.419 1.055 1.933 1.64zm-6.952-1.226c-.393-.66-1.009-1.296-1.009-2.059.958.27 1.526 1.178 1.6 2.108-.173.244-.419.049-.591-.049zM57.613 21.66a29.156 29.156 0 0 1 1.189 8.256c0 16.14-13.12 29.225-29.31 29.225-13.702 0-25.212-9.379-28.421-22.048.35-.29.688-.484.929-.594.126.523.26 1.043.415 1.556.041.038.08.071.118.103.51.521.501 1.19.552 1.851.16.41.327.82.503 1.221 0-.075.009-.151.073-.203 1.084-.27 1.183 1.153 1.945 1.643.026.638.613.76.886 1.179.173.072.196-.173.345-.173 1.156.39 2.018 1.643 2.532 2.647a.694.694 0 0 1-.295.247c-.444-.417-.981-.908-1.647-.958-.121.667.172 1.252.666 1.719.292.294.785.71 1.179.294.934-.17-.394-.858.47-1.178.414-.075.982-.147 1.35.047.565.395 1.032.937 1.476 1.375.687.248 1.402 1.159 2.118.591.22-.343.465-.638.419-1.08.292-.589.686.148 1.128 0 1.6-1.152 3.346.121 4.848.59.44.318.834.71 1.4.71.712 0 1.625.147 2.141-.514.346-.418.27-1.008.296-1.547.392-1.078.959.514 1.819.075.668-.148 1.182-.71 1.65-1.179.49.468.687 1.202 1.35 1.57.69.517 1.749.612 2.56.295 1.502-.49 1.522-2.183 3-2.87 1.403-1.08 3.471 0 4.674-1.545.52-.59.445-1.401.694-2.107.268-.642.929-.786 1.467-.934 1.563-.497 1.74-1.907 2.332-3.072.26-.511.595-.976 1.167-1.296.417-.05.91-.244 1.301 0 .273.198.444.64.765.762.392-.737 1.032-1.473 1.943-1.4.047.05.148.075.123.176.612 0 1.155-.423 1.476-.886.296-.665.221-1.423-.05-2.062-.023-.539-.54-.366-.836-.244-1.576.173-.713 2.185-2.114 2.354-.567-.44-.493-1.052-.542-1.764.096-.955.639-1.937 1.597-2.355.738-.345 1.452.27 1.895.882.346-.365.69-.955 1.278-.882.666-.687.52-1.84.372-2.698-.322-.785.49-1.52.81-2.233.023-.058.042-.12.055-.182.112-.588-.238-1.22.14-1.707.42.271.889.59 1.11 1.103.124.075.317.245.418 0 .442-.98.467-2.081-.173-2.991-.17-.197-.295.098-.416.173-.688.245-.272 2.208-1.356 1.177-.44-.833 0-1.913.516-2.65.299-.319.591.075.886.123.03-.104.06-.207.096-.31.957.482 1.925 1.145 2.688 1.718zM6.121 45.566c.271.096.271-.199.42-.296.05-1.054-.86-1.544-1.647-2.011l-.124.293c.369.713.64 1.5 1.351 2.014zm2.264 3.187c-.278.48 1.221 1.249 1.391 1.226.05-.366-1.343-1.422-1.391-1.226zm2.522 2.432c.268.22 1.434 1.217 1.727 1.071-.149-.544-1.532-1.218-1.899-1.442zm1.907-.91c.247-.075.514-.318.394-.637-.595-.69-1.33-1.081-2.164-1.13l-.121.245c.536.64.982 1.422 1.89 1.522zm1.724 3.547c.65.566 2.224 1.122 2.545.726-.074-.32-.137-1.143-.408-1.318 0 0-.418 1.146-2.137.469zm2.815-1.55c.651.013 1.894-.502 1.34-1.02-.726.899-2.865.09-3.602-.106.44.463 1.622 1.103 2.262 1.126zm1.075-2.358c.467-.15 1.315-.797 1.268-1.362-.08.043-.826.72-1.818.684-.994-.113-1.467-.715-1.492-.702-.122.345.314.995.56 1.245.422.245.99.23 1.482.135zm4.017 3.905c.073-.269-.123-.92-.296-1.016-.063 1.089-1.94.524-2.581.404.168.17.908.587 1.079.735.703.196 1.495.196 1.798-.123zm12.06-3.79c-.785.856-2.162 1.362-3.634.785.02.024.073.049.048.096.638.517 1.069.847 2.383.677.898-.26 1.326-1.29 1.203-1.559zM22.85 51.917c.199.295.495.392.764.589.886.296 1.92.54 2.655-.222.197-.344.149-.906-.172-1.127l-.371.468c-.785.708-1.916.364-2.876.292zm1.898 4.022c.74.122 1.63-.318 2.046-.613-.74.1-2.477.306-3.388-.53 0 0 .604 1.02 1.342 1.143zm1.151-6.425c.763.587 1.968.832 2.954.464.415-.146.884-.586.836-1.054 0-.22-.247-.32-.42-.368-.81.982-2.161 1.081-3.37.836zm4.635 4.657c.932-.09 1.541-1.025 1.473-1.315-.933.702-2.381.948-3.729.116.022.026.066.062.03.106.538.622.9 1.025 2.226 1.093zm3.274 1.947c.765-.096 1.335-.984 1.335-.984s-1.417.875-2.837.645c-.03-.005.74.43 1.502.339zm1.244-8.494c-.048.172.332.244.408.345.418.22 1.109.43 1.81.072 1.019-.463 1.217-1.381 1.306-1.963-.996 1.286-1.936 1.608-3.524 1.546zm2.62 4.77c.738-.213 1.157-1.182 1.157-1.182s-1.253 1.092-2.696 1.092c-.031 0 .8.305 1.54.09zm9.902-14.188c-.492.682-1.155 1.392-2.066 1.344 0 .218.22.242.37.366.662.244 1.277-.148 1.648-.71.097-.294.29-.708.048-1zm-5.502 15.007c.688-.35.919-1.379.919-1.379s-1.036 1.306-2.447 1.572c-.032.006.843.152 1.528-.193zm-.353-3.959c.994-.365 1.427-1.294 1.538-2.21-.704 1.135-1.302 1.82-2.722 2.037zm2.15-5.48c.459-.523.95-1.198.643-1.965-.366.247-.67 1.015-1.017 1.35-.515.614-1.38.493-1.718 1.013.678 0 1.57-.032 2.093-.399zm3.079 4.55c.782-.945.552-1.769.478-2.035-.193.976-1.371 1.93-2.572 2.574.517-.023 1.417.246 2.094-.539zm2.082-5.485c.373-.59.755-1.333.333-2.045-.327.3-.514 1.106-.794 1.494-.424.689-1.29.7-1.546 1.266.668-.104 1.546-.27 2.007-.715zm1.099-4.647c.66-.142 1.524-.358 1.955-.825.341-.609.677-1.371.217-2.056-.307.317-.445 1.132-.706 1.533-.379.707-1.243.77-1.466 1.348zm1.666 7.519c.587-.492.577-1.548.577-1.548s-.707 1.503-2.023 2.084c-.029.01.859-.04 1.446-.536zm1.075-4.696c.313-.696.173-1.693.022-1.952-.102 1.534-.574 2.475-1.47 2.639.28.114 1.19-.188 1.448-.687zm2.029-11.383c-.036.008-.063.017-.07.031 0 0 .03-.01.07-.03.267-.074 1.19-.13 1.303-.72.254-.68-.163-1.196-.492-1.761 0 0 .3.842.055 1.544-.198.566-.687.847-.866.936zm.171 3.95c.214-.737-.062-1.713-.247-1.942.11 1.535-.231 2.531-1.1 2.821.297.07 1.159-.355 1.347-.88zm1.476 3.397c.39-.665.016-1.653.016-1.653s-.153 1.653-1.196 2.647c-.022.018.796-.332 1.18-.994zM20.783 47.33c-.538-.149-.588-.686-.538-1.177-.025-.54.442-.982.883-1.227 1.18-.587 2.388.173 3.297.93l.197.467c.073.247-.197.321-.365.296a3.069 3.069 0 0 0-2.194-.172c-.568.172-.515 1.4-1.28.884zm-8.681-5.346a.426.426 0 0 1-.421-.196c-.097-.343-.124-.784.174-1.056a1.684 1.684 0 0 1 1.6 0c.44.272.883.713 1.18 1.18l-.05.365c-.983.393-1.673-1.349-2.483-.293zm5.658.81c.686.22 1.252.859 1.598 1.47-.416.636-1.057-.148-1.598-.217-.618-.098-1.134.318-1.402.757-.223-.097-.494-.222-.594-.465 0-.516-.075-1.057.296-1.423.47-.344 1.184-.368 1.7-.122zm4.426-1.399c-.784.71-1.966-.516-2.78.393-.271.099-.42-.124-.59-.294 0-.59.47-1.054 1.007-1.227.641-.17 1.355-.195 1.898 0 .17.368.664.661.465 1.128zm7.799 2.455c1.033-.615 2.658-.447 3.42.54.097.346.023.86-.419.934-1.356-.638-2.017.936-3.25.666-.271-.05-.416-.372-.639-.544.048-.639.223-1.303.888-1.596zm-17.71 2.844c-.47-.371-.837-.931-.594-1.545.049-.37.47-.59.767-.712 1.182.074 2.215.882 2.831 1.886.125.223.075.566-.168.664-.717-.22-1.335-.76-2.197-.664-.074.296-.443.171-.64.371z"/></g><g><path fill="#fefefe" d="M46.504 17.786H44.7l.3-15h.658z"/></g><g><path fill="#dc3631" d="M45.01 1.284l-.053 3.777c1.062-.875 2.927-1.973 3.852-1.72.048.012.087.036.123.058L48.658.252c-.615-.606-2.127-.064-3.648 1.032"/></g><g><path fill="#dc3631" d="M48.93 3.945c-.105-.176-.475-.149-.988.094l.07 1.057c.246-.388.495-.535.659-.635.283-.172.383-.313.26-.516"/></g><g><path fill="#dc3631" d="M51.398 1.199c-.585.22-1.833.321-2.197.309l.262 2.801h-.004c-.002.079-.041.333-.459.515-.291.127-.489.402-.24.547.05.03.141.066.328.084a5.536 5.536 0 0 0 2.31-.307z"/></g><g><path fill="#006944" d="M2.321 12.057c.443.156 1.124.309 1.682.42-.856.03-1.626-.004-1.682.041.102.096.397.212.618.25.326.056.766.092 1.2.113.09.272.751.955 1.67 1.55.505.326 2.618 1.07 3.942 1.643 1.06.462 1.026 1.048.872 1.602.365-.155 1.061-.431 1.692-.418.543.01 2.294.417 3.82.269 1.526-.15 2.13-.323 2.393-.462.289.12.597.24.825.306.143.042.347.058.43.03-.025-.04-.503-.241-1.018-.502l.004-.004c.373.106.84.23 1.158.274.148.022.353.01.43-.026-.033-.041-.606-.192-1.198-.402-.037-.013-.075-.027-.111-.042v.002c.385.077.763.145 1.06.175.241.023.576-.008.7-.074-.044-.05-.63-.187-1.351-.388l.004-.004c.352.037.69.063.96.065.243.001.572-.06.69-.137-.042-.041-.5-.11-1.107-.214.226-.003.436-.014.615-.03.242-.023.563-.12.67-.21-.04-.032-.426-.05-.957-.087l.007-.005a5.12 5.12 0 0 0 .375-.095c.198-.06.453-.193.53-.286-.065-.032-.86.17-1.74.27-.17.019-.38.041-.561.053a70.75 70.75 0 0 1-.657.02c-.326.31-1.291 1.048-3.133 1.048-1.903.001-3.346.025-4.096.44 0 0 .476-.549-.864-1.29-2.066-1.139-4.144-2.867-3.888-3.829-.263-.184-1.469-1.18-1.803-1.481-.571-.58-1.04-1.128-1.107-1.142-.002.12.11.39.23.563.15.23.376.515.61.795v.005l-.065-.033c-.79-.41-1.496-.855-1.57-.851.033.111.22.33.383.46.3.237.762.537 1.182.795a.07.07 0 0 1-.003.018 13.095 13.095 0 0 1-.481-.198c-.815-.353-1.551-.746-1.626-.737.042.109.243.312.415.43.386.265 1.02.603 1.515.857a12.852 12.852 0 0 1-.5-.128c-.87-.238-1.666-.528-1.737-.51.056.105.288.28.476.376.47.234 1.258.513 1.807.698a10.903 10.903 0 0 1-.415-.046c-.922-.119-1.781-.31-1.85-.275.078.106.346.266.555.338"/></g><g><path fill="#fefefe" d="M15.157 16.805c-1.903 0-3.397.06-4.146.478 0 0 .526-.587-.815-1.327-2.065-1.14-4.144-2.868-3.887-3.83.437.306.895.608 1.359.895.75.46 3.653 2.07 3.96 2.166.13.041.804-.474.947-.565 1.24-.78 1.601.527 1.601.527s-.21-.034-.465.137c-.295.2-.383.377-.383.377s1.92.09 2.562.103c.515.01 1.5.01 2.4-.01-.327.311-1.292 1.049-3.133 1.05"/></g><g><path fill="#006944" d="M10.78 17.496s-.637-.018-.733.27c.266.134.732-.27.732-.27"/></g><g><path fill="#006944" d="M10.762 17.51s-.247.583-.014.777c.224-.198.014-.777.014-.777"/></g><g><path fill="#006944" d="M10.775 17.482s-.607.39-.51.72c.334-.045.51-.72.51-.72"/></g></g></g></svg>